<svg version="1.2" xmlns="http://www.w3.org/2000/svg" viewBox="0 0 1500 500" width="1500" height="500">
	<defs>
		<linearGradient id="g1" x2="1" gradientUnits="userSpaceOnUse" gradientTransform="matrix(-295.809,295.809,-169.989,-169.989,412.521,95.712)">
			<stop offset="0" stop-color="#0078ff"/>
			<stop offset="1" stop-color="#000267"/>
		</linearGradient>
		<linearGradient id="g2" x2="1" gradientUnits="userSpaceOnUse" gradientTransform="matrix(295.809,295.809,-169.989,169.989,116.712,95.712)">
			<stop offset="0" stop-color="#00aaff"/>
			<stop offset="1" stop-color="#0076ff"/>
		</linearGradient>
		<linearGradient id="g3" x2="1" gradientUnits="userSpaceOnUse" gradientTransform="matrix(149.312,149.312,-169.99,169.99,116.712,95.712)">
			<stop offset="0" stop-color="#d2ffff" stop-opacity="1"/>
			<stop offset="1" stop-color="#d2ffff" stop-opacity="0"/>
		</linearGradient>
		<linearGradient id="g4" x2="1" gradientUnits="userSpaceOnUse" gradientTransform="matrix(0,163.406,-163.918,0,900.331,88)">
			<stop offset="0" stop-color="#000540"/>
			<stop offset="1" stop-color="#000759"/>
		</linearGradient>
		<linearGradient id="g5" x2="1" gradientUnits="userSpaceOnUse" gradientTransform="matrix(0,163.406,-138.209,0,900.331,88)">
			<stop offset="0" stop-color="#000540"/>
			<stop offset="1" stop-color="#000759"/>
		</linearGradient>
		<linearGradient id="g6" x2="1" gradientUnits="userSpaceOnUse" gradientTransform="matrix(0,163.406,-96.368,0,900.331,88)">
			<stop offset="0" stop-color="#000540"/>
			<stop offset="1" stop-color="#000759"/>
		</linearGradient>
		<linearGradient id="g7" x2="1" gradientUnits="userSpaceOnUse" gradientTransform="matrix(0,163.406,-96.368,0,900.331,88)">
			<stop offset="0" stop-color="#000540"/>
			<stop offset="1" stop-color="#000759"/>
		</linearGradient>
		<linearGradient id="g8" x2="1" gradientUnits="userSpaceOnUse" gradientTransform="matrix(0,163.406,-148.551,0,900.331,88)">
			<stop offset="0" stop-color="#000540"/>
			<stop offset="1" stop-color="#000759"/>
		</linearGradient>
		<linearGradient id="g9" x2="1" gradientUnits="userSpaceOnUse" gradientTransform="matrix(0,163.406,-23.984,0,900.331,88)">
			<stop offset="0" stop-color="#000540"/>
			<stop offset="1" stop-color="#000759"/>
		</linearGradient>
		<linearGradient id="g10" x2="1" gradientUnits="userSpaceOnUse" gradientTransform="matrix(0,163.406,-38.367,0,900.331,88)">
			<stop offset="0" stop-color="#000540"/>
			<stop offset="1" stop-color="#000759"/>
		</linearGradient>
		<linearGradient id="g11" x2="1" gradientUnits="userSpaceOnUse" gradientTransform="matrix(0,163.406,-38.367,0,900.331,88)">
			<stop offset="0" stop-color="#000540"/>
			<stop offset="1" stop-color="#000759"/>
		</linearGradient>
	</defs>
	<style>
		.s0 { fill: #ffffff } 
		.s1 { fill: #000540 } 
		.s2 { fill: url(#g1) } 
		.s3 { fill: url(#g2) } 
		.s4 { fill: url(#g3) } 
		.s5 { fill: #0073ff } 
		.s6 { fill: url(#g4) } 
		.s7 { fill: url(#g5) } 
		.s8 { fill: url(#g6) } 
		.s9 { fill: url(#g7) } 
		.s10 { fill: url(#g8) } 
		.s11 { fill: url(#g9) } 
		.s12 { fill: url(#g10) } 
		.s13 { fill: url(#g11) } 
		.s14 { fill: #009fff } 
		.s15 { fill: #0078ff } 
	</style>
	<path id="Shape 1" fill-rule="evenodd" class="s0" d="m1500 0v500h-1500v-500z"/>
	<path class="s1" d="m179.62 170.84c81.68-81.68 185.96-109.85 232.9-62.9 46.94 46.94 18.78 151.21-62.91 232.9-81.68 81.68-185.96 109.85-232.9 62.9-46.94-46.94-18.78-151.21 62.91-232.9z"/>
	<path class="s1" d="m179.62 340.84c-81.69-81.69-109.85-185.96-62.91-232.9 46.94-46.95 151.22-18.78 232.9 62.9 81.69 81.69 109.85 185.96 62.91 232.9-46.94 46.95-151.22 18.78-232.9-62.9z"/>
	<path class="s2" d="m179.62 158.62c81.68-81.69 185.96-109.85 232.9-62.91 46.94 46.94 18.78 151.22-62.91 232.9-81.68 81.69-185.96 109.85-232.9 62.91-46.94-46.94-18.78-151.22 62.91-232.9z"/>
	<path class="s3" d="m116.71 95.71c46.94-46.94 151.22-18.78 232.9 62.91 81.69 81.68 109.85 185.96 62.91 232.9-46.94 46.94-151.22 18.78-232.9-62.91-81.69-81.68-109.85-185.96-62.91-232.9z"/>
	<path class="s4" d="m179.62 328.61c-81.69-81.68-109.85-185.96-62.91-232.9 46.94-46.94 151.22-18.78 232.9 62.91 1.65 1.65-167.9 172.08-169.99 169.99z"/>
	<path class="s5" d="m178.17 318.42l86.45-157.76 86.44 157.76-86.44-47.73z"/>
	<path class="s0" d="m178.17 310.27l86.45-157.76 86.44 157.76-86.44-47.73z"/>
	<path class="s6" d="m662.96 251.41h-27.38l-11-13.24q-8.83 5.39-19.19 8.4-10.16 2.8-21.29 2.8-16.18 0-30.4-5.88-14.08-6.16-24.87-16.67-10.64-10.57-16.88-24.65-5.95-14.01-5.95-29.98 0-16.04 5.95-30.05 6.24-14.08 16.88-24.58 10.79-10.58 24.87-16.53 14.22-6.1 30.4-6.1 16.25 0 30.39 6.1 14.08 5.95 24.73 16.53 10.78 10.5 16.81 24.58 6.16 14.01 6.16 30.05 0 15.34-5.81 29-5.54 13.44-15.34 23.81z"/>
	<path class="s7" d="m1028.86 249.37q-16.18 0-30.4-5.88-14.15-6.16-24.94-16.67-10.64-10.57-16.81-24.58-5.95-14.08-5.95-30.05 0-16.04 5.95-30.05 6.17-14.08 16.81-24.58 10.79-10.58 24.94-16.53 14.22-6.1 30.4-6.1 15.27 0 28.5 5.47 13.66 5.18 24.03 14.64l-6.94 28.71q-6.86-11.2-18.7-18.28-11.62-7.28-26.4-7.28-14.85 0-26.97 7.42-11.84 7.08-18.98 19.47-6.86 12.05-6.86 27.11 0 14.85 6.86 27.18 7.14 12.25 18.98 19.54 12.12 7.21 26.97 7.21 14.78 0 26.4-7.07 11.84-7.36 18.7-18.49l6.94 28.71q-10.51 9.32-24.03 14.85-13.23 5.25-28.5 5.25z"/>
	<path class="s8" d="m1294.66 246.43h-28.22l-41.89-54.22v54.22h-23.32v-158.43h23.32v103.67l34.46-44.28h25.78l-34.11 42.66z"/>
	<path class="s9" d="m945.86 246.43h-28.23l-41.88-54.22v54.22h-23.33v-158.43h23.33c0 0-1.84 34.73 0 37.74v65.93l34.46-44.28h25.77l-34.11 42.66z"/>
	<path class="s10" d="m722.43 249.09q-10.44 0-19.61-5.11-9.11-5.18-14.85-14.85-5.61-9.87-5.61-23.6v-58.14h23.26v54.99q0 10.01 5.95 17.79 6.09 7.63 17.02 7.63 8.9 0 15.83-6.3 7.14-6.59 7.14-18.7v-55.41h23.26v99.04h-21.29v-13.23q-5.4 7.7-13.73 11.9-7.99 3.99-17.37 3.99z"/>
	<path fill-rule="evenodd" class="s11" d="m1123.83 88v158.43h-23.25v-158.43z"/>
	<path fill-rule="evenodd" class="s12" d="m825.46 147.39v99.04h-23.26v-99.04z"/>
	<path fill-rule="evenodd" class="s13" d="m1174.26 147.39v99.04h-23.25v-99.04z"/>
	<path class="s14" d="m1162.64 131.29q-5.68 0-9.74-3.86-3.85-4.06-3.85-9.73 0-5.89 3.85-9.74 4.06-3.92 9.74-3.92 5.88 0 9.73 4.06 3.85 3.71 3.85 9.6 0 5.67-3.99 9.73-3.71 3.86-9.59 3.86z"/>
	<path class="s14" d="m813.83 131.29q-5.67 0-9.74-3.86-3.85-4.06-3.85-9.73 0-5.89 3.85-9.74 4.07-3.85 9.74-3.85 5.88 0 9.74 3.99 3.85 3.71 3.85 9.6 0 5.67-3.99 9.73-3.72 3.86-9.6 3.86z"/>
	<path class="s14" d="m557.08 218.92c-7.89-4.81-14.25-11.33-19.02-19.5-4.62-8.22-6.94-17.33-6.94-27.23 0-10.04 2.32-19.13 6.94-27.16 4.77-8.26 11.13-14.79 19.02-19.5q7.63-4.71 16.44-6.44 5.05-1 10.51-1 0.01 0 0.03 0 0.02 0 0.04 0 5.45 0 10.5 1 8.81 1.73 16.44 6.44c7.89 4.71 14.26 11.24 19.02 19.5 4.62 8.03 6.95 17.12 6.95 27.16 0 9.9-2.33 19.01-6.95 27.23-4.76 8.17-11.13 14.69-19.02 19.5-7.49 4.54-15.87 6.96-25.04 7.27q-0.95 0.03-1.9 0.03-0.02 0-0.04 0-0.02 0-0.03 0-0.96 0-1.9-0.03c-9.17-0.3-17.55-2.73-25.05-7.27z"/>
	<path id="Cardinal" class="s15" aria-label="Cardinal"  d="m574.1 411.3q-12.8 0-24-4.6-11.2-4.9-19.7-13.2-8.4-8.3-13.3-19.4-4.7-11.1-4.7-23.7 0-12.7 4.7-23.8 4.9-11 13.3-19.4 8.5-8.3 19.7-13 11.2-4.8 24-4.8 12 0 22.5 4.3 10.8 4.1 19 11.6l-5.5 22.7q-5.4-8.9-14.8-14.5-9.2-5.7-20.8-5.7-11.8 0-21.3 5.8-9.4 5.6-15 15.4-5.4 9.5-5.4 21.4 0 11.7 5.4 21.5 5.6 9.6 15 15.3 9.5 5.8 21.3 5.8 11.6 0 20.8-5.6 9.4-5.8 14.8-14.6l5.5 22.6q-8.3 7.4-19 11.8-10.5 4.1-22.5 4.1zm90.8-0.7q-10.8 0-19.8-5.5-8.7-5.5-14-14.7-5.2-9.3-5.2-20.5 0-11.2 5.2-20.3 5.3-9.4 14-14.7 9-5.6 19.8-5.6 7.8 0 14.4 2.8 6.8 2.8 11.6 7.8v-9.1h16.3v78.2h-16.3v-9.1q-4.8 4.9-11.6 7.9-6.6 2.8-14.4 2.8zm2.3-16.4q6.6 0 11.8-3.2 5.5-3.4 8.6-8.8 3.3-5.6 3.3-12.3 0-6.7-3.3-12.1-3.1-5.6-8.6-8.9-5.2-3.3-11.8-3.3-6.6 0-12 3.3-5.4 3.3-8.6 8.9-3.1 5.4-3.1 12.1 0 6.7 3.1 12.3 3.2 5.4 8.6 8.8 5.4 3.2 12 3.2zm79.7 14.8h-18.3v-78.2h16.6v13.9q4.1-6.8 10.6-10.8 6.6-3.9 15.6-3.9l4.2 17.1q-2.5-0.8-5.7-0.8-10.4 0-16.7 6.8-6.3 6.5-6.3 18.8zm73.1 1.6q-10.9 0-19.9-5.5-8.7-5.5-14-14.7-5.2-9.3-5.2-20.5 0-11.2 5.2-20.3 5.3-9.3 14-14.7 9-5.6 19.9-5.6 6.9 0 12.9 2.3 6.1 2.3 10.9 6.4v-54.1h18.4v125.1h-16.3v-8.9q-4.8 4.8-11.6 7.8-6.6 2.7-14.3 2.7zm2.2-16.3q6.6 0 11.8-3.2 5.5-3.4 8.6-8.9 3.3-5.5 3.3-12.2 0-6.8-3.3-12.2-3.1-5.6-8.6-8.8-5.2-3.4-11.8-3.4-6.6 0-12 3.4-5.4 3.2-8.6 8.8-3.1 5.4-3.1 12.1 0 6.8 3.1 12.3 3.2 5.5 8.6 8.9 5.4 3.2 12 3.2zm78.9 14.7h-18.4v-78.1h18.4zm-9.2-90.9q-4.5 0-7.7-3.1-3.1-3.2-3.1-7.7 0-4.6 3.1-7.7 3.2-3 7.7-3 4.6 0 7.7 3.2 3 2.9 3 7.5 0 4.5-3.2 7.7-2.9 3.1-7.5 3.1zm49 90.9h-18.3v-78.2h16.6v10.6q4.3-6.2 10.7-9.5 6.5-3.2 14-3.2 8.4 0 15.5 4 7.2 4.1 11.6 11.8 4.5 7.6 4.5 18.6v45.9h-18.3v-43.4q0-7.9-4.9-14-4.6-6.1-13.3-6.1-7 0-12.6 5.1-5.5 4.8-5.5 14.6zm109 1.6q-10.8 0-19.8-5.5-8.7-5.5-14-14.7-5.2-9.3-5.2-20.5 0-11.2 5.2-20.3 5.3-9.3 14-14.7 9-5.6 19.8-5.6 7.8 0 14.4 2.9 6.8 2.8 11.6 7.8v-9.1h16.3v78.1h-16.3v-9.1q-4.8 5-11.6 8-6.6 2.7-14.4 2.7zm2.3-16.3q6.6 0 11.8-3.2 5.5-3.4 8.6-8.9 3.3-5.5 3.3-12.2 0-6.8-3.3-12.2-3.1-5.6-8.6-8.8-5.2-3.4-11.8-3.4-6.6 0-12 3.4-5.4 3.2-8.6 8.8-3.1 5.4-3.1 12.1 0 6.8 3.1 12.3 3.2 5.5 8.6 8.9 5.4 3.2 12 3.2zm78.9 14.7h-18.4v-125.1h18.4z"/>
</svg>